{
  "version": "0.6.2b",
  "modules": [
    {
      "plugin": "HolonicSystems-Free",
      "version": "0.6.4",
      "model": "HolonicSystems-HolonicSource",
      "params": [
        {
          "paramId": 16,
          "value": 0.0
        },
        {
          "paramId": 0,
          "value": 1.0
        },
        {
          "paramId": 8,
          "value": 1.0
        },
        {
          "paramId": 1,
          "value": 1.0
        },
        {
          "paramId": 9,
          "value": 1.0
        },
        {
          "paramId": 2,
          "value": 1.0
        },
        {
          "paramId": 10,
          "value": 1.0
        },
        {
          "paramId": 3,
          "value": 1.0
        },
        {
          "paramId": 11,
          "value": 0.927999854
        },
        {
          "paramId": 4,
          "value": 1.0
        },
        {
          "paramId": 12,
          "value": 1.0
        },
        {
          "paramId": 5,
          "value": 1.0
        },
        {
          "paramId": 13,
          "value": 1.0
        },
        {
          "paramId": 6,
          "value": 1.0
        },
        {
          "paramId": 14,
          "value": 1.0
        },
        {
          "paramId": 7,
          "value": 1.0
        },
        {
          "paramId": 15,
          "value": 1.0
        },
        {
          "paramId": 17,
          "value": 1.0
        }
      ],
      "pos": [
        0,
        0
      ]
    },
    {
      "plugin": "HolonicSystems-Free",
      "version": "0.6.4",
      "model": "HolonicSystems-SwissCheeseKnife",
      "params": [
        {
          "paramId": 4,
          "value": 1.0
        },
        {
          "paramId": 0,
          "value": 1.0
        },
        {
          "paramId": 24,
          "value": 0.5
        },
        {
          "paramId": 8,
          "value": 1.0
        },
        {
          "paramId": 12,
          "value": 0.0
        },
        {
          "paramId": 16,
          "value": 0.0
        },
        {
          "paramId": 20,
          "value": 0.5
        },
        {
          "paramId": 28,
          "value": 0.0
        },
        {
          "paramId": 32,
          "value": 1.0
        },
        {
          "paramId": 5,
          "value": 1.0
        },
        {
          "paramId": 1,
          "value": 0.316000074
        },
        {
          "paramId": 25,
          "value": 0.5
        },
        {
          "paramId": 9,
          "value": 1.0
        },
        {
          "paramId": 13,
          "value": 0.0
        },
        {
          "paramId": 17,
          "value": 0.0959999934
        },
        {
          "paramId": 21,
          "value": 0.5
        },
        {
          "paramId": 29,
          "value": 0.0
        },
        {
          "paramId": 33,
          "value": 1.0
        },
        {
          "paramId": 6,
          "value": 1.0
        },
        {
          "paramId": 2,
          "value": 0.422500432
        },
        {
          "paramId": 26,
          "value": 0.5
        },
        {
          "paramId": 10,
          "value": 1.0
        },
        {
          "paramId": 14,
          "value": 0.0
        },
        {
          "paramId": 18,
          "value": 0.344999969
        },
        {
          "paramId": 22,
          "value": 0.5
        },
        {
          "paramId": 30,
          "value": 0.0
        },
        {
          "paramId": 34,
          "value": 1.0
        },
        {
          "paramId": 7,
          "value": 1.0
        },
        {
          "paramId": 3,
          "value": 0.151000366
        },
        {
          "paramId": 27,
          "value": 0.5
        },
        {
          "paramId": 11,
          "value": 0.751000285
        },
        {
          "paramId": 15,
          "value": 0.00600000005
        },
        {
          "paramId": 19,
          "value": 0.808499694
        },
        {
          "paramId": 23,
          "value": 0.5
        },
        {
          "paramId": 31,
          "value": 0.0
        },
        {
          "paramId": 35,
          "value": 1.0
        }
      ],
      "pos": [
        8,
        0
      ]
    },
    {
      "plugin": "HolonicSystems-Free",
      "version": "0.6.4",
      "model": "HolonicSystems-Gaps",
      "params": [
        {
          "paramId": 1,
          "value": 0.0
        },
        {
          "paramId": 0,
          "value": 6.0
        }
      ],
      "pos": [
        4,
        1
      ]
    },
    {
      "plugin": "HolonicSystems-Free",
      "version": "0.6.4",
      "model": "HolonicSystems-Junctions",
      "params": [],
      "pos": [
        8,
        1
      ]
    },
    {
      "plugin": "StellareModular-Link",
      "version": "0.6.1",
      "model": "Link",
      "params": [
        {
          "paramId": 0,
          "value": 0.0
        },
        {
          "paramId": 1,
          "value": 0.0
        },
        {
          "paramId": 2,
          "value": 0.0
        }
      ],
      "pos": [
        0,
        1
      ]
    },
    {
      "plugin": "ML_modules",
      "version": "0.6.3",
      "model": "BPMdetect",
      "params": [
        {
          "paramId": 0,
          "value": 0.237000018
        },
        {
          "paramId": 1,
          "value": 2.0
        },
        {
          "paramId": 3,
          "value": 1.0
        },
        {
          "paramId": 2,
          "value": 3.0
        },
        {
          "paramId": 4,
          "value": 1.0
        },
        {
          "paramId": 5,
          "value": 1.0
        },
        {
          "paramId": 6,
          "value": 1.0
        }
      ],
      "pos": [
        0,
        2
      ]
    },
    {
      "plugin": "Core",
      "version": "0.6.2b",
      "model": "AudioInterface",
      "params": [],
      "data": {
        "audio": {
          "driver": 7,
          "deviceName": "MOTU Audio ASIO",
          "offset": 0,
          "maxChannels": 8,
          "sampleRate": 44100,
          "blockSize": 512
        }
      },
      "pos": [
        116,
        2
      ]
    },
    {
      "plugin": "Befaco",
      "version": "0.6.0",
      "model": "Mixer",
      "params": [
        {
          "paramId": 0,
          "value": 1.0
        },
        {
          "paramId": 1,
          "value": 1.0
        },
        {
          "paramId": 2,
          "value": 0.32400009
        },
        {
          "paramId": 3,
          "value": 1.0
        }
      ],
      "pos": [
        116,
        1
      ]
    },
    {
      "plugin": "Befaco",
      "version": "0.6.0",
      "model": "Mixer",
      "params": [
        {
          "paramId": 0,
          "value": 0.898000002
        },
        {
          "paramId": 1,
          "value": 0.0
        },
        {
          "paramId": 2,
          "value": 0.0
        },
        {
          "paramId": 3,
          "value": 0.0
        }
      ],
      "pos": [
        111,
        1
      ]
    },
    {
      "plugin": "Befaco",
      "version": "0.6.0",
      "model": "Mixer",
      "params": [
        {
          "paramId": 0,
          "value": 1.0
        },
        {
          "paramId": 1,
          "value": 1.0
        },
        {
          "paramId": 2,
          "value": 0.342000037
        },
        {
          "paramId": 3,
          "value": 1.0
        }
      ],
      "pos": [
        121,
        1
      ]
    },
    {
      "plugin": "Befaco",
      "version": "0.6.0",
      "model": "Mixer",
      "params": [
        {
          "paramId": 0,
          "value": 1.0
        },
        {
          "paramId": 1,
          "value": 0.331499964
        },
        {
          "paramId": 2,
          "value": 0.0
        },
        {
          "paramId": 3,
          "value": 0.0
        }
      ],
      "pos": [
        106,
        1
      ]
    },
    {
      "plugin": "AudibleInstruments",
      "version": "0.6.3",
      "model": "Clouds",
      "params": [
        {
          "paramId": 3,
          "value": 0.106999956
        },
        {
          "paramId": 4,
          "value": 0.401000053
        },
        {
          "paramId": 5,
          "value": -0.0119999694
        },
        {
          "paramId": 6,
          "value": 0.688000381
        },
        {
          "paramId": 7,
          "value": 0.0
        },
        {
          "paramId": 8,
          "value": 0.249000058
        },
        {
          "paramId": 9,
          "value": 1.0
        },
        {
          "paramId": 10,
          "value": 1.0
        },
        {
          "paramId": 11,
          "value": 0.303000033
        },
        {
          "paramId": 12,
          "value": 0.0
        },
        {
          "paramId": 0,
          "value": 0.0
        },
        {
          "paramId": 1,
          "value": 0.0
        },
        {
          "paramId": 2,
          "value": 0.0
        }
      ],
      "data": {
        "playback": 0,
        "quality": 1,
        "blendMode": 2
      },
      "pos": [
        98,
        2
      ]
    },
    {
      "plugin": "Valley",
      "version": "0.6.16",
      "model": "Plateau",
      "params": [
        {
          "paramId": 0,
          "value": 0.0
        },
        {
          "paramId": 1,
          "value": 0.561000347
        },
        {
          "paramId": 2,
          "value": 0.110999994
        },
        {
          "paramId": 3,
          "value": 7.32999992
        },
        {
          "paramId": 4,
          "value": 7.2249999
        },
        {
          "paramId": 5,
          "value": 0.396000147
        },
        {
          "paramId": 6,
          "value": 7.57000065
        },
        {
          "paramId": 7,
          "value": 0.130146742
        },
        {
          "paramId": 9,
          "value": 6.60999823
        },
        {
          "paramId": 8,
          "value": 6.66999722
        },
        {
          "paramId": 10,
          "value": 0.0
        },
        {
          "paramId": 12,
          "value": 0.5
        },
        {
          "paramId": 11,
          "value": 0.5
        },
        {
          "paramId": 17,
          "value": 0.0
        },
        {
          "paramId": 18,
          "value": 0.375
        },
        {
          "paramId": 19,
          "value": -0.34800002
        },
        {
          "paramId": 20,
          "value": -0.474000007
        },
        {
          "paramId": 21,
          "value": 0.209999815
        },
        {
          "paramId": 22,
          "value": 0.0
        },
        {
          "paramId": 23,
          "value": 0.924000144
        },
        {
          "paramId": 25,
          "value": 0.0
        },
        {
          "paramId": 24,
          "value": 0.0
        },
        {
          "paramId": 26,
          "value": 0.0
        },
        {
          "paramId": 27,
          "value": 0.0
        },
        {
          "paramId": 28,
          "value": 0.0
        },
        {
          "paramId": 13,
          "value": 0.0
        },
        {
          "paramId": 15,
          "value": 0.0
        },
        {
          "paramId": 14,
          "value": 0.0
        },
        {
          "paramId": 29,
          "value": 0.0
        },
        {
          "paramId": 30,
          "value": 0.0
        }
      ],
      "data": {
        "frozen": false,
        "freezeToggle": false,
        "panelStyle": 0,
        "tuned": 0,
        "diffuseInput": 0,
        "preDelayCVSens": 0,
        "inputSensitivity": 0,
        "outputSaturation": 0
      },
      "pos": [
        114,
        0
      ]
    },
    {
      "plugin": "HolonicSystems-Free",
      "version": "0.6.4",
      "model": "HolonicSystems-Pantry",
      "params": [
        {
          "paramId": 0,
          "value": 0.0
        },
        {
          "paramId": 2,
          "value": 0.0
        },
        {
          "paramId": 4,
          "value": 0.0
        },
        {
          "paramId": 6,
          "value": 8.0
        },
        {
          "paramId": 8,
          "value": 0.0
        },
        {
          "paramId": 1,
          "value": 0.0
        },
        {
          "paramId": 3,
          "value": 0.0
        },
        {
          "paramId": 5,
          "value": 0.0
        },
        {
          "paramId": 7,
          "value": 8.0
        },
        {
          "paramId": 9,
          "value": 0.0
        }
      ],
      "pos": [
        24,
        0
      ]
    },
    {
      "plugin": "Fundamental",
      "version": "0.6.2",
      "model": "VCO",
      "params": [
        {
          "paramId": 0,
          "value": 0.0
        },
        {
          "paramId": 1,
          "value": 1.0
        },
        {
          "paramId": 2,
          "value": -17.874012
        },
        {
          "paramId": 3,
          "value": 0.0
        },
        {
          "paramId": 5,
          "value": 0.334999919
        },
        {
          "paramId": 4,
          "value": 0.702000082
        },
        {
          "paramId": 6,
          "value": 0.230999976
        }
      ],
      "pos": [
        32,
        0
      ]
    },
    {
      "plugin": "Fundamental",
      "version": "0.6.2",
      "model": "VCO",
      "params": [
        {
          "paramId": 0,
          "value": 0.0
        },
        {
          "paramId": 1,
          "value": 1.0
        },
        {
          "paramId": 2,
          "value": -18.9540024
        },
        {
          "paramId": 3,
          "value": 0.0
        },
        {
          "paramId": 5,
          "value": 0.5
        },
        {
          "paramId": 4,
          "value": 0.492000073
        },
        {
          "paramId": 6,
          "value": 0.0
        }
      ],
      "pos": [
        42,
        0
      ]
    },
    {
      "plugin": "Fundamental",
      "version": "0.6.2",
      "model": "VCA",
      "params": [
        {
          "paramId": 0,
          "value": 1.0
        },
        {
          "paramId": 1,
          "value": 1.0
        }
      ],
      "pos": [
        84,
        0
      ]
    },
    {
      "plugin": "Fundamental",
      "version": "0.6.2",
      "model": "ADSR",
      "params": [
        {
          "paramId": 0,
          "value": 0.00900000054
        },
        {
          "paramId": 1,
          "value": 0.5
        },
        {
          "paramId": 2,
          "value": 0.5
        },
        {
          "paramId": 3,
          "value": 0.435000479
        }
      ],
      "pos": [
        60,
        0
      ]
    },
    {
      "plugin": "Fundamental",
      "version": "0.6.2",
      "model": "ADSR",
      "params": [
        {
          "paramId": 0,
          "value": 0.0
        },
        {
          "paramId": 1,
          "value": 0.457999915
        },
        {
          "paramId": 2,
          "value": 0.318499923
        },
        {
          "paramId": 3,
          "value": 0.534000099
        }
      ],
      "pos": [
        68,
        0
      ]
    },
    {
      "plugin": "AmalgamatedHarmonics",
      "version": "0.6.4",
      "model": "ScaleQuantizer2",
      "params": [
        {
          "paramId": 0,
          "value": 0.0
        },
        {
          "paramId": 1,
          "value": 3.0
        },
        {
          "paramId": 10,
          "value": 0.0
        },
        {
          "paramId": 2,
          "value": 0.0
        },
        {
          "paramId": 3,
          "value": 0.0
        },
        {
          "paramId": 4,
          "value": 0.0
        },
        {
          "paramId": 5,
          "value": 0.0
        },
        {
          "paramId": 6,
          "value": 0.0
        },
        {
          "paramId": 7,
          "value": 0.0
        },
        {
          "paramId": 8,
          "value": 0.0
        },
        {
          "paramId": 9,
          "value": 0.0
        }
      ],
      "pos": [
        12,
        1
      ]
    },
    {
      "plugin": "Fundamental",
      "version": "0.6.2",
      "model": "VCF",
      "params": [
        {
          "paramId": 0,
          "value": 0.0
        },
        {
          "paramId": 1,
          "value": 0.5
        },
        {
          "paramId": 2,
          "value": 0.0
        },
        {
          "paramId": 3,
          "value": 1.0
        },
        {
          "paramId": 4,
          "value": 0.0
        }
      ],
      "pos": [
        52,
        0
      ]
    },
    {
      "plugin": "Fundamental",
      "version": "0.6.2",
      "model": "ADSR",
      "params": [
        {
          "paramId": 0,
          "value": 0.0
        },
        {
          "paramId": 1,
          "value": 0.457999915
        },
        {
          "paramId": 2,
          "value": 0.318499923
        },
        {
          "paramId": 3,
          "value": 0.417499632
        }
      ],
      "pos": [
        76,
        0
      ]
    },
    {
      "plugin": "Befaco",
      "version": "0.6.0",
      "model": "ABC",
      "params": [
        {
          "paramId": 0,
          "value": 0.458999872
        },
        {
          "paramId": 1,
          "value": 0.389999837
        },
        {
          "paramId": 2,
          "value": 0.591999888
        },
        {
          "paramId": 3,
          "value": 0.801999867
        }
      ],
      "pos": [
        32,
        1
      ]
    },
    {
      "plugin": "VultModulesFree",
      "version": "0.6.26",
      "model": "Stabile",
      "params": [
        {
          "paramId": 0,
          "value": 0.365000427
        },
        {
          "paramId": 1,
          "value": 0.894000173
        },
        {
          "paramId": 2,
          "value": 0.221999973
        },
        {
          "paramId": 3,
          "value": 0.311999977
        },
        {
          "paramId": 4,
          "value": 0.507000089
        },
        {
          "paramId": 5,
          "value": 0.0
        }
      ],
      "pos": [
        48,
        1
      ]
    },
    {
      "plugin": "Valley",
      "version": "0.6.16",
      "model": "Topograph",
      "params": [
        {
          "paramId": 2,
          "value": 0.0
        },
        {
          "paramId": 3,
          "value": 0.0
        },
        {
          "paramId": 4,
          "value": 0.0
        },
        {
          "paramId": 5,
          "value": 0.0
        },
        {
          "paramId": 6,
          "value": 1.0
        },
        {
          "paramId": 7,
          "value": 0.5
        },
        {
          "paramId": 8,
          "value": 0.5
        },
        {
          "paramId": 9,
          "value": 0.0
        },
        {
          "paramId": 0,
          "value": 0.0
        },
        {
          "paramId": 1,
          "value": 0.0
        }
      ],
      "data": {
        "sequencerMode": 0,
        "triggerOutputMode": 0,
        "accOutputMode": 0,
        "extClockResolution": 0,
        "chaosKnobMode": 0,
        "runMode": 0,
        "panelStyle": 0,
        "running": 1
      },
      "pos": [
        10,
        2
      ]
    },
    {
      "plugin": "VultModulesFree",
      "version": "0.6.26",
      "model": "Lateralus",
      "params": [
        {
          "paramId": 0,
          "value": 0.843999922
        },
        {
          "paramId": 1,
          "value": 0.0599999949
        },
        {
          "paramId": 2,
          "value": 0.0
        },
        {
          "paramId": 3,
          "value": 0.48600018
        },
        {
          "paramId": 4,
          "value": 1.88
        },
        {
          "paramId": 5,
          "value": 0.0
        }
      ],
      "pos": [
        38,
        1
      ]
    },
    {
      "plugin": "Fundamental",
      "version": "0.6.2",
      "model": "ADSR",
      "params": [
        {
          "paramId": 0,
          "value": 0.0120000001
        },
        {
          "paramId": 1,
          "value": 0.201000094
        },
        {
          "paramId": 2,
          "value": 0.614500284
        },
        {
          "paramId": 3,
          "value": 0.365999997
        }
      ],
      "pos": [
        39,
        2
      ]
    },
    {
      "plugin": "Fundamental",
      "version": "0.6.2",
      "model": "ADSR",
      "params": [
        {
          "paramId": 0,
          "value": 0.0
        },
        {
          "paramId": 1,
          "value": 0.291499257
        },
        {
          "paramId": 2,
          "value": 0.0469999462
        },
        {
          "paramId": 3,
          "value": 0.598999858
        }
      ],
      "pos": [
        47,
        2
      ]
    },
    {
      "plugin": "ML_modules",
      "version": "0.6.3",
      "model": "Sum8",
      "params": [],
      "pos": [
        26,
        2
      ]
    },
    {
      "plugin": "Fundamental",
      "version": "0.6.2",
      "model": "VCA",
      "params": [
        {
          "paramId": 0,
          "value": 1.0
        },
        {
          "paramId": 1,
          "value": 1.0
        }
      ],
      "pos": [
        55,
        2
      ]
    },
    {
      "plugin": "Fundamental",
      "version": "0.6.2",
      "model": "VCO",
      "params": [
        {
          "paramId": 0,
          "value": 0.0
        },
        {
          "paramId": 1,
          "value": 0.0
        },
        {
          "paramId": 2,
          "value": -29.1600189
        },
        {
          "paramId": 3,
          "value": 0.0
        },
        {
          "paramId": 5,
          "value": 0.5
        },
        {
          "paramId": 4,
          "value": 0.502500594
        },
        {
          "paramId": 6,
          "value": 0.0
        }
      ],
      "pos": [
        29,
        2
      ]
    }
  ],
  "wires": [
    {
      "color": "#0c8e15",
      "outputModuleId": 4,
      "outputId": 2,
      "inputModuleId": 5,
      "inputId": 0
    },
    {
      "color": "#c91847",
      "outputModuleId": 9,
      "outputId": 0,
      "inputModuleId": 6,
      "inputId": 1
    },
    {
      "color": "#0c8e15",
      "outputModuleId": 7,
      "outputId": 0,
      "inputModuleId": 6,
      "inputId": 0
    },
    {
      "color": "#0986ad",
      "outputModuleId": 8,
      "outputId": 0,
      "inputModuleId": 7,
      "inputId": 1
    },
    {
      "color": "#c9b70e",
      "outputModuleId": 8,
      "outputId": 0,
      "inputModuleId": 9,
      "inputId": 1
    },
    {
      "color": "#c91847",
      "outputModuleId": 10,
      "outputId": 0,
      "inputModuleId": 9,
      "inputId": 0
    },
    {
      "color": "#0c8e15",
      "outputModuleId": 10,
      "outputId": 0,
      "inputModuleId": 7,
      "inputId": 0
    },
    {
      "color": "#0986ad",
      "outputModuleId": 0,
      "outputId": 1,
      "inputModuleId": 13,
      "inputId": 4
    },
    {
      "color": "#c91847",
      "outputModuleId": 1,
      "outputId": 1,
      "inputModuleId": 13,
      "inputId": 12
    },
    {
      "color": "#0c8e15",
      "outputModuleId": 13,
      "outputId": 0,
      "inputModuleId": 19,
      "inputId": 0
    },
    {
      "color": "#0986ad",
      "outputModuleId": 14,
      "outputId": 0,
      "inputModuleId": 20,
      "inputId": 3
    },
    {
      "color": "#c9b70e",
      "outputModuleId": 17,
      "outputId": 0,
      "inputModuleId": 16,
      "inputId": 1
    },
    {
      "color": "#c91847",
      "outputModuleId": 16,
      "outputId": 0,
      "inputModuleId": 10,
      "inputId": 0
    },
    {
      "color": "#0c8e15",
      "outputModuleId": 5,
      "outputId": 4,
      "inputModuleId": 13,
      "inputId": 0
    },
    {
      "color": "#0986ad",
      "outputModuleId": 5,
      "outputId": 4,
      "inputModuleId": 19,
      "inputId": 11
    },
    {
      "color": "#c9b70e",
      "outputModuleId": 19,
      "outputId": 0,
      "inputModuleId": 14,
      "inputId": 0
    },
    {
      "color": "#c91847",
      "outputModuleId": 19,
      "outputId": 8,
      "inputModuleId": 17,
      "inputId": 4
    },
    {
      "color": "#0986ad",
      "outputModuleId": 0,
      "outputId": 3,
      "inputModuleId": 13,
      "inputId": 5
    },
    {
      "color": "#c9b70e",
      "outputModuleId": 1,
      "outputId": 2,
      "inputModuleId": 13,
      "inputId": 13
    },
    {
      "color": "#c91847",
      "outputModuleId": 0,
      "outputId": 3,
      "inputModuleId": 1,
      "inputId": 2
    },
    {
      "color": "#0986ad",
      "outputModuleId": 16,
      "outputId": 0,
      "inputModuleId": 12,
      "inputId": 0
    },
    {
      "color": "#c9b70e",
      "outputModuleId": 12,
      "outputId": 0,
      "inputModuleId": 7,
      "inputId": 2
    },
    {
      "color": "#c91847",
      "outputModuleId": 12,
      "outputId": 1,
      "inputModuleId": 9,
      "inputId": 2
    },
    {
      "color": "#0c8e15",
      "outputModuleId": 20,
      "outputId": 0,
      "inputModuleId": 16,
      "inputId": 2
    },
    {
      "color": "#0986ad",
      "outputModuleId": 19,
      "outputId": 8,
      "inputModuleId": 18,
      "inputId": 4
    },
    {
      "color": "#c9b70e",
      "outputModuleId": 18,
      "outputId": 0,
      "inputModuleId": 20,
      "inputId": 0
    },
    {
      "color": "#c91847",
      "outputModuleId": 13,
      "outputId": 1,
      "inputModuleId": 18,
      "inputId": 3
    },
    {
      "color": "#0c8e15",
      "outputModuleId": 0,
      "outputId": 7,
      "inputModuleId": 13,
      "inputId": 6
    },
    {
      "color": "#0986ad",
      "outputModuleId": 0,
      "outputId": 7,
      "inputModuleId": 13,
      "inputId": 7
    },
    {
      "color": "#c9b70e",
      "outputModuleId": 13,
      "outputId": 1,
      "inputModuleId": 19,
      "inputId": 1
    },
    {
      "color": "#c91847",
      "outputModuleId": 19,
      "outputId": 8,
      "inputModuleId": 21,
      "inputId": 4
    },
    {
      "color": "#0c8e15",
      "outputModuleId": 21,
      "outputId": 0,
      "inputModuleId": 16,
      "inputId": 3
    },
    {
      "color": "#0986ad",
      "outputModuleId": 15,
      "outputId": 0,
      "inputModuleId": 16,
      "inputId": 5
    },
    {
      "color": "#c9b70e",
      "outputModuleId": 16,
      "outputId": 1,
      "inputModuleId": 14,
      "inputId": 1
    },
    {
      "color": "#c91847",
      "outputModuleId": 13,
      "outputId": 0,
      "inputModuleId": 21,
      "inputId": 3
    },
    {
      "color": "#0c8e15",
      "outputModuleId": 14,
      "outputId": 1,
      "inputModuleId": 22,
      "inputId": 0
    },
    {
      "color": "#c9b70e",
      "outputModuleId": 22,
      "outputId": 0,
      "inputModuleId": 15,
      "inputId": 1
    },
    {
      "color": "#0986ad",
      "outputModuleId": 22,
      "outputId": 0,
      "inputModuleId": 25,
      "inputId": 0
    },
    {
      "color": "#c9b70e",
      "outputModuleId": 23,
      "outputId": 1,
      "inputModuleId": 11,
      "inputId": 6
    },
    {
      "color": "#c91847",
      "outputModuleId": 11,
      "outputId": 0,
      "inputModuleId": 7,
      "inputId": 3
    },
    {
      "color": "#0c8e15",
      "outputModuleId": 11,
      "outputId": 1,
      "inputModuleId": 9,
      "inputId": 3
    },
    {
      "color": "#0986ad",
      "outputModuleId": 13,
      "outputId": 1,
      "inputModuleId": 12,
      "inputId": 9
    },
    {
      "color": "#c91847",
      "outputModuleId": 0,
      "outputId": 6,
      "inputModuleId": 23,
      "inputId": 1
    },
    {
      "color": "#0c8e15",
      "outputModuleId": 0,
      "outputId": 5,
      "inputModuleId": 23,
      "inputId": 2
    },
    {
      "color": "#0986ad",
      "outputModuleId": 0,
      "outputId": 4,
      "inputModuleId": 12,
      "inputId": 6
    },
    {
      "color": "#c9b70e",
      "outputModuleId": 0,
      "outputId": 4,
      "inputModuleId": 12,
      "inputId": 5
    },
    {
      "color": "#c91847",
      "outputModuleId": 0,
      "outputId": 7,
      "inputModuleId": 11,
      "inputId": 0
    },
    {
      "color": "#0c8e15",
      "outputModuleId": 0,
      "outputId": 2,
      "inputModuleId": 11,
      "inputId": 2
    },
    {
      "color": "#0986ad",
      "outputModuleId": 0,
      "outputId": 6,
      "inputModuleId": 11,
      "inputId": 3
    },
    {
      "color": "#c9b70e",
      "outputModuleId": 5,
      "outputId": 4,
      "inputModuleId": 2,
      "inputId": 0
    },
    {
      "color": "#0c8e15",
      "outputModuleId": 15,
      "outputId": 1,
      "inputModuleId": 22,
      "inputId": 1
    },
    {
      "color": "#0986ad",
      "outputModuleId": 14,
      "outputId": 2,
      "inputModuleId": 22,
      "inputId": 2
    },
    {
      "color": "#c9b70e",
      "outputModuleId": 5,
      "outputId": 4,
      "inputModuleId": 24,
      "inputId": 0
    },
    {
      "color": "#0c8e15",
      "outputModuleId": 24,
      "outputId": 0,
      "inputModuleId": 3,
      "inputId": 1
    },
    {
      "color": "#0986ad",
      "outputModuleId": 4,
      "outputId": 1,
      "inputModuleId": 24,
      "inputId": 1
    },
    {
      "color": "#c9b70e",
      "outputModuleId": 13,
      "outputId": 0,
      "inputModuleId": 12,
      "inputId": 3
    },
    {
      "color": "#c91847",
      "outputModuleId": 13,
      "outputId": 1,
      "inputModuleId": 17,
      "inputId": 3
    },
    {
      "color": "#0c8e15",
      "outputModuleId": 22,
      "outputId": 0,
      "inputModuleId": 22,
      "inputId": 3
    },
    {
      "color": "#0986ad",
      "outputModuleId": 23,
      "outputId": 2,
      "inputModuleId": 22,
      "inputId": 4
    },
    {
      "color": "#c9b70e",
      "outputModuleId": 22,
      "outputId": 1,
      "inputModuleId": 11,
      "inputId": 7
    },
    {
      "color": "#c91847",
      "outputModuleId": 20,
      "outputId": 1,
      "inputModuleId": 22,
      "inputId": 5
    },
    {
      "color": "#0986ad",
      "outputModuleId": 0,
      "outputId": 0,
      "inputModuleId": 1,
      "inputId": 1
    },
    {
      "color": "#c9b70e",
      "outputModuleId": 4,
      "outputId": 0,
      "inputModuleId": 11,
      "inputId": 1
    },
    {
      "color": "#c91847",
      "outputModuleId": 25,
      "outputId": 1,
      "inputModuleId": 23,
      "inputId": 0
    },
    {
      "color": "#0c8e15",
      "outputModuleId": 0,
      "outputId": 6,
      "inputModuleId": 25,
      "inputId": 2
    },
    {
      "color": "#c9b70e",
      "outputModuleId": 1,
      "outputId": 3,
      "inputModuleId": 11,
      "inputId": 5
    },
    {
      "color": "#c91847",
      "outputModuleId": 0,
      "outputId": 1,
      "inputModuleId": 1,
      "inputId": 3
    },
    {
      "color": "#0c8e15",
      "outputModuleId": 2,
      "outputId": 5,
      "inputModuleId": 28,
      "inputId": 0
    },
    {
      "color": "#0986ad",
      "outputModuleId": 2,
      "outputId": 7,
      "inputModuleId": 28,
      "inputId": 1
    },
    {
      "color": "#c9b70e",
      "outputModuleId": 28,
      "outputId": 0,
      "inputModuleId": 26,
      "inputId": 4
    },
    {
      "color": "#c91847",
      "outputModuleId": 28,
      "outputId": 0,
      "inputModuleId": 27,
      "inputId": 4
    },
    {
      "color": "#0c8e15",
      "outputModuleId": 30,
      "outputId": 0,
      "inputModuleId": 29,
      "inputId": 2
    },
    {
      "color": "#0986ad",
      "outputModuleId": 26,
      "outputId": 0,
      "inputModuleId": 29,
      "inputId": 1
    },
    {
      "color": "#c9b70e",
      "outputModuleId": 29,
      "outputId": 0,
      "inputModuleId": 8,
      "inputId": 0
    },
    {
      "color": "#c91847",
      "outputModuleId": 1,
      "outputId": 3,
      "inputModuleId": 11,
      "inputId": 4
    },
    {
      "color": "#0c8e15",
      "outputModuleId": 19,
      "outputId": 1,
      "inputModuleId": 15,
      "inputId": 0
    },
    {
      "color": "#0986ad",
      "outputModuleId": 5,
      "outputId": 4,
      "inputModuleId": 19,
      "inputId": 12
    },
    {
      "color": "#c9b70e",
      "outputModuleId": 27,
      "outputId": 0,
      "inputModuleId": 30,
      "inputId": 1
    },
    {
      "color": "#c91847",
      "outputModuleId": 28,
      "outputId": 0,
      "inputModuleId": 30,
      "inputId": 2
    },
    {
      "color": "#0c8e15",
      "outputModuleId": 4,
      "outputId": 0,
      "inputModuleId": 29,
      "inputId": 5
    },
    {
      "color": "#0986ad",
      "outputModuleId": 0,
      "outputId": 1,
      "inputModuleId": 29,
      "inputId": 4
    },
    {
      "color": "#c9b70e",
      "outputModuleId": 29,
      "outputId": 1,
      "inputModuleId": 28,
      "inputId": 2
    },
    {
      "color": "#0c8e15",
      "outputModuleId": 0,
      "outputId": 0,
      "inputModuleId": 13,
      "inputId": 8
    },
    {
      "color": "#0986ad",
      "outputModuleId": 0,
      "outputId": 2,
      "inputModuleId": 13,
      "inputId": 9
    },
    {
      "color": "#c9b70e",
      "outputModuleId": 4,
      "outputId": 1,
      "inputModuleId": 2,
      "inputId": 1
    },
    {
      "color": "#c91847",
      "outputModuleId": 4,
      "outputId": 1,
      "inputModuleId": 13,
      "inputId": 1
    }
  ]
}